<svg id="logo" xmlns="http://www.w3.org/2000/svg" width="52" height="60.47" viewBox="0 0 52 60.47">
  <path id="Path_1" data-name="Path 1" d="M33.658-167.313c-2.144,1.251-4.575,2.645-5.361,3.109-.786.429-4.9,2.823-9.113,5.254L11.5-154.482v30.235l5.718,3.359c3.145,1.823,5.968,3.431,6.254,3.574s1.179.643,1.966,1.144c.786.465,3.86,2.252,6.79,3.967l5.4,3.074,4.753-2.788c2.645-1.537,4.825-2.788,4.9-2.788.036,0,2.073-1.179,4.5-2.609s6.04-3.538,8.077-4.718L63.5-124.14v-30.45L59.855-156.7c-2.037-1.144-5.611-3.217-7.97-4.61s-4.61-2.716-5-2.931-2.645-1.5-5-2.859l-4.289-2.5Zm7.505,4c.214.143,1.072.679,1.966,1.144.893.5,3.61,2.073,6.076,3.5,2.466,1.465,5.968,3.5,7.791,4.539l3.288,1.93-.071,12.9-.107,12.9-4.646,2.68c-2.537,1.465-5.54,3.216-6.612,3.824-1.072.643-4.038,2.359-6.576,3.86l-4.61,2.68-2-1.108c-1.108-.608-3.431-1.966-5.146-3s-3.216-1.894-3.288-1.894-1.322-.715-2.752-1.573S20.292-123.39,18.4-124.5l-3.5-2.037v-25.7l3.252-1.858c1.787-1.036,6.9-4,11.329-6.612l8.077-4.682,1.644.893Z" transform="translate(-11.5 169.6)" fill="#176d96"/>
  <path id="Path_2" data-name="Path 2" d="M43.06-139.719c-4.825,2.859-8.792,5.289-8.863,5.432-.036.179.429.572,1.072.893,1.322.679,2.323,1.251,5.861,3.359,1.358.822,4.4,2.573,6.755,3.931l4.253,2.466,3.5-1.966,3.5-2v-3.038h2.609c2.43,0,2.752-.107,5.5-1.715a12.59,12.59,0,0,0,2.859-1.93c-.071-.286-17.8-10.686-18.084-10.614C51.923-144.865,47.885-142.542,43.06-139.719Zm14.188,1.93a56.28,56.28,0,0,0,5.146,2.859c.858,0,.143,1-1.322,1.894l-1.644,1L57.748-133c-5.325-3.074-8.97-5.289-8.97-5.54a11.284,11.284,0,0,1,3.324-2.109C52.28-140.648,54.568-139.361,57.248-137.789Zm-5.432,5.575a11.787,11.787,0,0,1,3.216,2.252c0,.214-.643.786-1.43,1.251l-1.43.858-5.289-3.074a43.757,43.757,0,0,1-5.254-3.324,4.787,4.787,0,0,1,1.5-1.179l1.5-.893,2,1.108C47.706-134.572,50.065-133.25,51.816-132.213Z" transform="translate(-26.084 153.728)" fill="#176d96"/>
  <path id="Path_3" data-name="Path 3" d="M31-101.493c0,7.97.107,10.579.465,10.865.214.214,4.146,2.5,8.649,5.075,4.539,2.573,8.363,4.86,8.542,5.039.786.751.929.107.929-4s-.036-4.36-.929-5.54l-.965-1.251.965-.965c.893-.965.929-1.144.929-5.146v-4.146l-4.9-2.788c-2.716-1.537-6.755-3.9-9.006-5.218a39.181,39.181,0,0,0-4.4-2.43A101.8,101.8,0,0,0,31-101.493Zm8.077-1.68c1.966,1.108,4.217,2.395,5.075,2.859,1.465.858,1.5.929,1.5,2.823,0,1.072-.107,1.93-.25,1.894-.179,0-2.537-1.251-5.289-2.788l-5-2.752L35-103.173c-.071-1.108.036-2.037.214-2.037A28.579,28.579,0,0,1,39.077-103.173Zm-.429,8.291c1.787.929,4.074,2.216,5.039,2.788,1.787,1.036,1.787,1.036,1.894,3.109.071,1.179-.036,2.037-.214,1.966-.214-.071-2.609-1.43-5.4-3L34.931-92.88v-1.894c0-1,.107-1.858.25-1.858C35.289-96.632,36.861-95.846,38.648-94.881Z" transform="translate(-24.031 132.586)" fill="#97b7c7"/>
  <path id="Path_4" data-name="Path 4" d="M102.082-110.821c-1.072.643-5.146,3-9.006,5.218L86-101.529v10.65a105.143,105.143,0,0,0,.286,10.686,1.343,1.343,0,0,0,.643-.322c.179-.179,4.038-2.466,8.542-5.039,4.539-2.573,8.434-4.86,8.685-5.075.5-.429.608-4.217.107-4.217-.179,0-3.252,1.715-6.826,3.788s-6.719,3.86-7,3.967c-.393.143-.5-.25-.5-1.751v-1.894l7.255-4.181,7.219-4.146.107-2c.071-1.108,0-2-.143-2-.322,0-11.794,6.326-13.08,7.219a4.435,4.435,0,0,1-1.144.643,5.451,5.451,0,0,1-.214-2.073v-2.073l3.681-2.18c2-1.179,5.289-3.109,7.326-4.253l3.645-2.073v-2.073a4.441,4.441,0,0,0-.25-2.073A12.471,12.471,0,0,0,102.082-110.821Z" transform="translate(-59.375 132.586)" fill="#97b7c7"/>
</svg>
