<svg xmlns="http://www.w3.org/2000/svg" width="18" height="21" viewBox="0 0 18 21">
  <g id="Image-5" transform="translate(-11.5 169.6)">
    <path id="Path_1" data-name="Path 1" d="M19.17-168.806c-.742.434-1.584.918-1.856,1.08s-1.695.98-3.155,1.824L11.5-164.35v10.5l1.979,1.167c1.089.633,2.066,1.191,2.165,1.241s.408.223.68.4,1.336.782,2.351,1.378l1.868,1.067,1.645-.968c.915-.534,1.67-.968,1.695-.968s.718-.41,1.559-.906,2.091-1.229,2.8-1.638l1.262-.732v-10.574l-1.262-.732c-.705-.4-1.942-1.117-2.759-1.6s-1.6-.943-1.732-1.018-.915-.521-1.732-.993l-1.485-.869Zm2.6,1.39c.074.05.371.236.68.4s1.249.72,2.1,1.216,2.066,1.216,2.7,1.576l1.138.67-.025,4.48-.037,4.48-1.608.931c-.878.509-1.918,1.117-2.289,1.328s-1.4.819-2.276,1.34l-1.6.931-.693-.385c-.384-.211-1.188-.683-1.781-1.043s-1.113-.658-1.138-.658-.458-.248-.953-.546-1.447-.856-2.1-1.241l-1.212-.707v-8.924l1.126-.645c.619-.36,2.388-1.39,3.922-2.3l2.8-1.626.569.31Z" transform="translate(0 0)" fill="#176d96"/>
    <path id="Path_2" data-name="Path 2" d="M37.263-143.1c-1.67.993-3.043,1.837-3.068,1.887s.148.2.371.31c.458.236.8.434,2.029,1.167.47.285,1.522.894,2.338,1.365l1.472.856,1.212-.683,1.212-.7v-1.055h.9a2.725,2.725,0,0,0,1.905-.6,4.358,4.358,0,0,0,.99-.67c-.025-.1-6.161-3.711-6.26-3.686C40.331-144.888,38.933-144.082,37.263-143.1Zm4.911.67a19.464,19.464,0,0,0,1.781.993c.3,0,.049.348-.458.658l-.569.348-.581-.335a26.506,26.506,0,0,1-3.105-1.924,3.9,3.9,0,0,1,1.151-.732C40.455-143.424,41.247-142.977,42.175-142.431Zm-1.88,1.936a4.081,4.081,0,0,1,1.113.782c0,.074-.223.273-.495.434l-.495.3-1.831-1.067a15.144,15.144,0,0,1-1.819-1.154,1.658,1.658,0,0,1,.52-.41l.52-.31.693.385C38.872-141.314,39.688-140.855,40.294-140.495Z" transform="translate(-19.887 -21.634)" fill="#176d96"/>
    <path id="Path_3" data-name="Path 3" d="M31-108.351c0,2.768.037,3.674.161,3.773.074.074,1.435.869,2.994,1.762s2.895,1.688,2.957,1.75c.272.261.322.037.322-1.39s-.012-1.514-.322-1.924l-.334-.434.334-.335c.309-.335.322-.4.322-1.787v-1.44l-1.695-.968c-.94-.534-2.338-1.353-3.118-1.812A13.551,13.551,0,0,0,31.1-112,35.467,35.467,0,0,0,31-108.351Zm2.8-.583c.68.385,1.46.832,1.757.993.507.3.52.323.52.981,0,.372-.037.67-.087.658s-.878-.434-1.831-.968l-1.732-.956-.037-.707c-.025-.385.012-.707.074-.707A9.882,9.882,0,0,1,33.8-108.934Zm-.148,2.879c.619.323,1.41.769,1.744.968.619.36.619.36.656,1.08.025.41-.012.707-.074.683s-.9-.5-1.868-1.043l-1.744-.993v-.658c0-.348.037-.645.087-.645S33.029-106.39,33.647-106.055Z" transform="translate(-17.088 -50.451)" fill="#97b7c7"/>
    <path id="Path_4" data-name="Path 4" d="M91.567-111.59c-.371.223-1.781,1.043-3.118,1.812L86-108.363v3.7a36.631,36.631,0,0,0,.1,3.711.464.464,0,0,0,.223-.112c.062-.062,1.4-.856,2.957-1.75s2.92-1.688,3.006-1.762c.173-.149.21-1.465.037-1.465-.062,0-1.126.6-2.363,1.316s-2.326,1.34-2.425,1.378c-.136.05-.173-.087-.173-.608v-.658l2.511-1.452,2.5-1.44.037-.7c.025-.385,0-.7-.049-.7-.111,0-4.082,2.2-4.528,2.507a1.534,1.534,0,0,1-.4.223,1.9,1.9,0,0,1-.074-.72v-.72l1.274-.757c.693-.41,1.831-1.08,2.536-1.477l1.262-.72v-.72a1.547,1.547,0,0,0-.087-.72A4.312,4.312,0,0,0,91.567-111.59Z" transform="translate(-65.284 -50.451)" fill="#97b7c7"/>
  </g>
</svg>
