<svg xmlns="http://www.w3.org/2000/svg" width="11" height="11" viewBox="0 0 11 11">
  <path id="Icon_material-phone" data-name="Icon material-phone" d="M6.712,9.261a9.258,9.258,0,0,0,4.027,4.027l1.344-1.344a.608.608,0,0,1,.623-.147,6.971,6.971,0,0,0,2.182.348.613.613,0,0,1,.611.611v2.133a.613.613,0,0,1-.611.611A10.388,10.388,0,0,1,4.5,5.111.613.613,0,0,1,5.111,4.5H7.25a.613.613,0,0,1,.611.611,6.942,6.942,0,0,0,.348,2.182.613.613,0,0,1-.153.623L6.712,9.261Z" transform="translate(-4.5 -4.5)" fill="#fff"/>
</svg>
